<mxfile host="app.diagrams.net" modified="2020-10-08T03:10:43.490Z" agent="5.0 (Windows NT 10.0; Win64; x64) AppleWebKit/537.36 (KHTML, like Gecko) Chrome/84.0.4147.125 Safari/537.36" etag="alE_VMf9eSdt7x411hu7" version="13.7.8" type="github">
  <diagram id="l_VRbaYY5x8nG968U9lK" name="Page-1">
    <mxGraphModel dx="1102" dy="582" grid="1" gridSize="10" guides="1" tooltips="1" connect="1" arrows="1" fold="1" page="1" pageScale="1" pageWidth="827" pageHeight="1169" math="0" shadow="0">
      <root>
        <mxCell id="0" />
        <mxCell id="1" parent="0" />
        <mxCell id="CNsvlzbDIOFofRBmc1B0-2" value="" style="whiteSpace=wrap;html=1;aspect=fixed;fillColor=#dae8fc;strokeColor=#6c8ebf;" vertex="1" parent="1">
          <mxGeometry x="30" y="140" width="150" height="150" as="geometry" />
        </mxCell>
        <mxCell id="CNsvlzbDIOFofRBmc1B0-5" value="" style="whiteSpace=wrap;html=1;aspect=fixed;fillColor=#ffe6cc;strokeColor=#d79b00;" vertex="1" parent="1">
          <mxGeometry x="40" y="150" width="150" height="150" as="geometry" />
        </mxCell>
        <mxCell id="CNsvlzbDIOFofRBmc1B0-6" value="" style="whiteSpace=wrap;html=1;aspect=fixed;fillColor=#dae8fc;strokeColor=#6c8ebf;" vertex="1" parent="1">
          <mxGeometry x="50" y="160" width="150" height="150" as="geometry" />
        </mxCell>
        <mxCell id="CNsvlzbDIOFofRBmc1B0-7" value="" style="whiteSpace=wrap;html=1;aspect=fixed;fillColor=#ffe6cc;strokeColor=#d79b00;" vertex="1" parent="1">
          <mxGeometry x="60" y="170" width="150" height="150" as="geometry" />
        </mxCell>
        <mxCell id="CNsvlzbDIOFofRBmc1B0-8" value="" style="whiteSpace=wrap;html=1;aspect=fixed;fillColor=#dae8fc;strokeColor=#6c8ebf;" vertex="1" parent="1">
          <mxGeometry x="70" y="180" width="150" height="150" as="geometry" />
        </mxCell>
        <mxCell id="CNsvlzbDIOFofRBmc1B0-9" value="" style="whiteSpace=wrap;html=1;aspect=fixed;fillColor=#ffe6cc;strokeColor=#d79b00;" vertex="1" parent="1">
          <mxGeometry x="80" y="190" width="150" height="150" as="geometry" />
        </mxCell>
        <mxCell id="CNsvlzbDIOFofRBmc1B0-10" value="" style="whiteSpace=wrap;html=1;aspect=fixed;fillColor=#dae8fc;strokeColor=#6c8ebf;" vertex="1" parent="1">
          <mxGeometry x="90" y="200" width="150" height="150" as="geometry" />
        </mxCell>
        <mxCell id="CNsvlzbDIOFofRBmc1B0-12" value="" style="whiteSpace=wrap;html=1;aspect=fixed;fillColor=#ffe6cc;strokeColor=#d79b00;" vertex="1" parent="1">
          <mxGeometry x="100" y="210" width="150" height="150" as="geometry" />
        </mxCell>
        <mxCell id="CNsvlzbDIOFofRBmc1B0-13" value="" style="whiteSpace=wrap;html=1;aspect=fixed;fillColor=#dae8fc;strokeColor=#6c8ebf;" vertex="1" parent="1">
          <mxGeometry x="110" y="220" width="150" height="150" as="geometry" />
        </mxCell>
        <mxCell id="CNsvlzbDIOFofRBmc1B0-16" value="Hyperspectral image data" style="text;html=1;strokeColor=none;fillColor=none;align=center;verticalAlign=middle;whiteSpace=wrap;rounded=0;fontStyle=1" vertex="1" parent="1">
          <mxGeometry x="55" y="390" width="160" height="20" as="geometry" />
        </mxCell>
        <mxCell id="CNsvlzbDIOFofRBmc1B0-19" value="" style="edgeStyle=orthogonalEdgeStyle;rounded=0;sketch=0;orthogonalLoop=1;jettySize=auto;shadow=0;dashed=1;strokeWidth=1;labelBorderColor=none;html=1;endArrow=classic;endFill=1;metaEdit=1;comic=0;" edge="1" parent="1" source="CNsvlzbDIOFofRBmc1B0-18">
          <mxGeometry relative="1" as="geometry">
            <mxPoint x="320" y="295" as="targetPoint" />
          </mxGeometry>
        </mxCell>
        <mxCell id="CNsvlzbDIOFofRBmc1B0-18" value="" style="whiteSpace=wrap;html=1;aspect=fixed;fillColor=#f5f5f5;strokeColor=#666666;fontColor=#333333;" vertex="1" parent="1">
          <mxGeometry x="180" y="280" width="30" height="30" as="geometry" />
        </mxCell>
        <mxCell id="CNsvlzbDIOFofRBmc1B0-21" value="&lt;span style=&quot;font-weight: 700&quot;&gt;Neighbourhood of the pixel vector&lt;/span&gt;" style="text;html=1;strokeColor=none;fillColor=none;align=center;verticalAlign=middle;whiteSpace=wrap;rounded=0;labelBackgroundColor=none;" vertex="1" parent="1">
          <mxGeometry x="200" y="310" width="110" height="20" as="geometry" />
        </mxCell>
        <mxCell id="CNsvlzbDIOFofRBmc1B0-85" style="edgeStyle=orthogonalEdgeStyle;rounded=0;sketch=0;orthogonalLoop=1;jettySize=auto;html=1;shadow=0;dashed=1;strokeWidth=1;" edge="1" parent="1" source="CNsvlzbDIOFofRBmc1B0-31">
          <mxGeometry relative="1" as="geometry">
            <mxPoint x="540" y="295" as="targetPoint" />
          </mxGeometry>
        </mxCell>
        <mxCell id="CNsvlzbDIOFofRBmc1B0-86" value="Text" style="text;html=1;align=center;verticalAlign=middle;resizable=0;points=[];autosize=1;" vertex="1" parent="1">
          <mxGeometry x="415" y="540" width="40" height="20" as="geometry" />
        </mxCell>
        <mxCell id="CNsvlzbDIOFofRBmc1B0-87" value="Conv3D&amp;nbsp;&lt;br&gt;+ &lt;br&gt;Selu" style="text;html=1;strokeColor=none;fillColor=none;align=center;verticalAlign=middle;whiteSpace=wrap;rounded=0;labelBackgroundColor=none;fontStyle=1" vertex="1" parent="1">
          <mxGeometry x="455" y="310" width="80" height="20" as="geometry" />
        </mxCell>
        <mxCell id="CNsvlzbDIOFofRBmc1B0-115" style="rounded=0;comic=0;sketch=0;orthogonalLoop=1;jettySize=auto;html=1;shadow=0;dashed=1;endArrow=classic;endFill=1;strokeWidth=1;" edge="1" parent="1" source="CNsvlzbDIOFofRBmc1B0-97">
          <mxGeometry relative="1" as="geometry">
            <mxPoint x="740" y="295" as="targetPoint" />
          </mxGeometry>
        </mxCell>
        <mxCell id="CNsvlzbDIOFofRBmc1B0-118" value="Conv3D&amp;nbsp;&lt;br&gt;+ &lt;br&gt;Selu" style="text;html=1;strokeColor=none;fillColor=none;align=center;verticalAlign=middle;whiteSpace=wrap;rounded=0;labelBackgroundColor=none;fontStyle=1" vertex="1" parent="1">
          <mxGeometry x="820" y="310" width="80" height="20" as="geometry" />
        </mxCell>
        <mxCell id="CNsvlzbDIOFofRBmc1B0-142" style="edgeStyle=orthogonalEdgeStyle;rounded=0;comic=0;sketch=0;orthogonalLoop=1;jettySize=auto;html=1;shadow=0;dashed=1;endArrow=classic;endFill=1;strokeWidth=1;" edge="1" parent="1">
          <mxGeometry relative="1" as="geometry">
            <mxPoint x="1275" y="294.65999999999997" as="targetPoint" />
            <mxPoint x="1125" y="294.65999999999997" as="sourcePoint" />
          </mxGeometry>
        </mxCell>
        <mxCell id="CNsvlzbDIOFofRBmc1B0-143" value="Maxpooling" style="text;html=1;strokeColor=none;fillColor=none;align=center;verticalAlign=middle;whiteSpace=wrap;rounded=0;labelBackgroundColor=none;fontStyle=1" vertex="1" parent="1">
          <mxGeometry x="1165" y="300" width="80" height="20" as="geometry" />
        </mxCell>
        <mxCell id="CNsvlzbDIOFofRBmc1B0-191" value="" style="group" vertex="1" connectable="0" parent="1">
          <mxGeometry x="1201" y="162" width="205" height="205" as="geometry" />
        </mxCell>
        <mxCell id="CNsvlzbDIOFofRBmc1B0-144" value="" style="whiteSpace=wrap;html=1;aspect=fixed;labelBackgroundColor=none;fillColor=#ffe6cc;strokeColor=#d79b00;" vertex="1" parent="CNsvlzbDIOFofRBmc1B0-191">
          <mxGeometry width="15" height="15" as="geometry" />
        </mxCell>
        <mxCell id="CNsvlzbDIOFofRBmc1B0-146" value="" style="whiteSpace=wrap;html=1;aspect=fixed;labelBackgroundColor=none;fillColor=#dae8fc;strokeColor=#6c8ebf;" vertex="1" parent="CNsvlzbDIOFofRBmc1B0-191">
          <mxGeometry x="10" y="10" width="15" height="15" as="geometry" />
        </mxCell>
        <mxCell id="CNsvlzbDIOFofRBmc1B0-147" value="" style="whiteSpace=wrap;html=1;aspect=fixed;labelBackgroundColor=none;fillColor=#ffe6cc;strokeColor=#d79b00;" vertex="1" parent="CNsvlzbDIOFofRBmc1B0-191">
          <mxGeometry x="20" y="20" width="15" height="15" as="geometry" />
        </mxCell>
        <mxCell id="CNsvlzbDIOFofRBmc1B0-148" value="" style="whiteSpace=wrap;html=1;aspect=fixed;labelBackgroundColor=none;fillColor=#dae8fc;strokeColor=#6c8ebf;" vertex="1" parent="CNsvlzbDIOFofRBmc1B0-191">
          <mxGeometry x="30" y="30" width="15" height="15" as="geometry" />
        </mxCell>
        <mxCell id="CNsvlzbDIOFofRBmc1B0-149" value="" style="whiteSpace=wrap;html=1;aspect=fixed;labelBackgroundColor=none;fillColor=#ffe6cc;strokeColor=#d79b00;" vertex="1" parent="CNsvlzbDIOFofRBmc1B0-191">
          <mxGeometry x="40" y="40" width="15" height="15" as="geometry" />
        </mxCell>
        <mxCell id="CNsvlzbDIOFofRBmc1B0-150" value="" style="whiteSpace=wrap;html=1;aspect=fixed;labelBackgroundColor=none;fillColor=#dae8fc;strokeColor=#6c8ebf;" vertex="1" parent="CNsvlzbDIOFofRBmc1B0-191">
          <mxGeometry x="50" y="50" width="15" height="15" as="geometry" />
        </mxCell>
        <mxCell id="CNsvlzbDIOFofRBmc1B0-151" value="" style="whiteSpace=wrap;html=1;aspect=fixed;labelBackgroundColor=none;fillColor=#ffe6cc;strokeColor=#d79b00;" vertex="1" parent="CNsvlzbDIOFofRBmc1B0-191">
          <mxGeometry x="60" y="60" width="15" height="15" as="geometry" />
        </mxCell>
        <mxCell id="CNsvlzbDIOFofRBmc1B0-152" value="" style="whiteSpace=wrap;html=1;aspect=fixed;labelBackgroundColor=none;fillColor=#dae8fc;strokeColor=#6c8ebf;" vertex="1" parent="CNsvlzbDIOFofRBmc1B0-191">
          <mxGeometry x="70" y="70" width="15" height="15" as="geometry" />
        </mxCell>
        <mxCell id="CNsvlzbDIOFofRBmc1B0-153" value="" style="whiteSpace=wrap;html=1;aspect=fixed;labelBackgroundColor=none;fillColor=#ffe6cc;strokeColor=#d79b00;" vertex="1" parent="CNsvlzbDIOFofRBmc1B0-191">
          <mxGeometry x="80" y="80" width="15" height="15" as="geometry" />
        </mxCell>
        <mxCell id="CNsvlzbDIOFofRBmc1B0-154" value="" style="whiteSpace=wrap;html=1;aspect=fixed;labelBackgroundColor=none;fillColor=#dae8fc;strokeColor=#6c8ebf;" vertex="1" parent="CNsvlzbDIOFofRBmc1B0-191">
          <mxGeometry x="90" y="90" width="15" height="15" as="geometry" />
        </mxCell>
        <mxCell id="CNsvlzbDIOFofRBmc1B0-155" value="" style="whiteSpace=wrap;html=1;aspect=fixed;labelBackgroundColor=none;" vertex="1" parent="CNsvlzbDIOFofRBmc1B0-191">
          <mxGeometry x="100" y="100" width="15" height="15" as="geometry" />
        </mxCell>
        <mxCell id="CNsvlzbDIOFofRBmc1B0-156" value="" style="whiteSpace=wrap;html=1;aspect=fixed;labelBackgroundColor=none;fillColor=#dae8fc;strokeColor=#6c8ebf;" vertex="1" parent="CNsvlzbDIOFofRBmc1B0-191">
          <mxGeometry x="110" y="110" width="15" height="15" as="geometry" />
        </mxCell>
        <mxCell id="CNsvlzbDIOFofRBmc1B0-157" value="" style="whiteSpace=wrap;html=1;aspect=fixed;labelBackgroundColor=none;" vertex="1" parent="CNsvlzbDIOFofRBmc1B0-191">
          <mxGeometry x="120" y="120" width="15" height="15" as="geometry" />
        </mxCell>
        <mxCell id="CNsvlzbDIOFofRBmc1B0-158" value="" style="whiteSpace=wrap;html=1;aspect=fixed;labelBackgroundColor=none;fillColor=#dae8fc;strokeColor=#6c8ebf;" vertex="1" parent="CNsvlzbDIOFofRBmc1B0-191">
          <mxGeometry x="130" y="130" width="15" height="15" as="geometry" />
        </mxCell>
        <mxCell id="CNsvlzbDIOFofRBmc1B0-159" value="" style="whiteSpace=wrap;html=1;aspect=fixed;labelBackgroundColor=none;" vertex="1" parent="CNsvlzbDIOFofRBmc1B0-191">
          <mxGeometry x="140" y="140" width="15" height="15" as="geometry" />
        </mxCell>
        <mxCell id="CNsvlzbDIOFofRBmc1B0-160" value="" style="whiteSpace=wrap;html=1;aspect=fixed;labelBackgroundColor=none;fillColor=#dae8fc;strokeColor=#6c8ebf;" vertex="1" parent="CNsvlzbDIOFofRBmc1B0-191">
          <mxGeometry x="150" y="150" width="15" height="15" as="geometry" />
        </mxCell>
        <mxCell id="CNsvlzbDIOFofRBmc1B0-161" value="" style="whiteSpace=wrap;html=1;aspect=fixed;labelBackgroundColor=none;" vertex="1" parent="CNsvlzbDIOFofRBmc1B0-191">
          <mxGeometry x="160" y="160" width="15" height="15" as="geometry" />
        </mxCell>
        <mxCell id="CNsvlzbDIOFofRBmc1B0-162" value="" style="whiteSpace=wrap;html=1;aspect=fixed;labelBackgroundColor=none;fillColor=#dae8fc;strokeColor=#6c8ebf;" vertex="1" parent="CNsvlzbDIOFofRBmc1B0-191">
          <mxGeometry x="170" y="170" width="15" height="15" as="geometry" />
        </mxCell>
        <mxCell id="CNsvlzbDIOFofRBmc1B0-163" value="" style="whiteSpace=wrap;html=1;aspect=fixed;labelBackgroundColor=none;" vertex="1" parent="CNsvlzbDIOFofRBmc1B0-191">
          <mxGeometry x="180" y="180" width="15" height="15" as="geometry" />
        </mxCell>
        <mxCell id="CNsvlzbDIOFofRBmc1B0-164" value="" style="whiteSpace=wrap;html=1;aspect=fixed;labelBackgroundColor=none;fillColor=#dae8fc;strokeColor=#6c8ebf;" vertex="1" parent="CNsvlzbDIOFofRBmc1B0-191">
          <mxGeometry x="190" y="190" width="15" height="15" as="geometry" />
        </mxCell>
        <mxCell id="CNsvlzbDIOFofRBmc1B0-165" value="" style="whiteSpace=wrap;html=1;aspect=fixed;labelBackgroundColor=none;fillColor=#ffe6cc;strokeColor=#d79b00;" vertex="1" parent="CNsvlzbDIOFofRBmc1B0-191">
          <mxGeometry x="180" y="180" width="15" height="15" as="geometry" />
        </mxCell>
        <mxCell id="CNsvlzbDIOFofRBmc1B0-166" value="" style="whiteSpace=wrap;html=1;aspect=fixed;labelBackgroundColor=none;fillColor=#ffe6cc;strokeColor=#d79b00;" vertex="1" parent="CNsvlzbDIOFofRBmc1B0-191">
          <mxGeometry x="160" y="160" width="15" height="15" as="geometry" />
        </mxCell>
        <mxCell id="CNsvlzbDIOFofRBmc1B0-167" value="" style="whiteSpace=wrap;html=1;aspect=fixed;labelBackgroundColor=none;fillColor=#ffe6cc;strokeColor=#d79b00;" vertex="1" parent="CNsvlzbDIOFofRBmc1B0-191">
          <mxGeometry x="140" y="140" width="15" height="15" as="geometry" />
        </mxCell>
        <mxCell id="CNsvlzbDIOFofRBmc1B0-168" value="" style="whiteSpace=wrap;html=1;aspect=fixed;labelBackgroundColor=none;fillColor=#ffe6cc;strokeColor=#d79b00;" vertex="1" parent="CNsvlzbDIOFofRBmc1B0-191">
          <mxGeometry x="120" y="120" width="15" height="15" as="geometry" />
        </mxCell>
        <mxCell id="CNsvlzbDIOFofRBmc1B0-169" value="" style="whiteSpace=wrap;html=1;aspect=fixed;labelBackgroundColor=none;fillColor=#ffe6cc;strokeColor=#d79b00;" vertex="1" parent="CNsvlzbDIOFofRBmc1B0-191">
          <mxGeometry x="100" y="100" width="15" height="15" as="geometry" />
        </mxCell>
        <mxCell id="CNsvlzbDIOFofRBmc1B0-194" value="" style="group" vertex="1" connectable="0" parent="1">
          <mxGeometry x="680" y="200" width="140" height="140" as="geometry" />
        </mxCell>
        <mxCell id="CNsvlzbDIOFofRBmc1B0-114" value="" style="whiteSpace=wrap;html=1;aspect=fixed;labelBackgroundColor=none;fillColor=#dae8fc;strokeColor=#6c8ebf;" vertex="1" parent="CNsvlzbDIOFofRBmc1B0-194">
          <mxGeometry x="120" y="120" width="20" height="20" as="geometry" />
        </mxCell>
        <mxCell id="CNsvlzbDIOFofRBmc1B0-193" value="" style="group" vertex="1" connectable="0" parent="CNsvlzbDIOFofRBmc1B0-194">
          <mxGeometry width="130" height="130" as="geometry" />
        </mxCell>
        <mxCell id="CNsvlzbDIOFofRBmc1B0-102" value="" style="whiteSpace=wrap;html=1;aspect=fixed;labelBackgroundColor=none;fillColor=#dae8fc;strokeColor=#6c8ebf;" vertex="1" parent="CNsvlzbDIOFofRBmc1B0-193">
          <mxGeometry width="20" height="20" as="geometry" />
        </mxCell>
        <mxCell id="CNsvlzbDIOFofRBmc1B0-103" value="" style="whiteSpace=wrap;html=1;aspect=fixed;labelBackgroundColor=none;fillColor=#ffe6cc;strokeColor=#d79b00;" vertex="1" parent="CNsvlzbDIOFofRBmc1B0-193">
          <mxGeometry x="10" y="10" width="20" height="20" as="geometry" />
        </mxCell>
        <mxCell id="CNsvlzbDIOFofRBmc1B0-104" value="" style="whiteSpace=wrap;html=1;aspect=fixed;labelBackgroundColor=none;fillColor=#dae8fc;strokeColor=#6c8ebf;" vertex="1" parent="CNsvlzbDIOFofRBmc1B0-193">
          <mxGeometry x="20" y="20" width="20" height="20" as="geometry" />
        </mxCell>
        <mxCell id="CNsvlzbDIOFofRBmc1B0-105" value="" style="whiteSpace=wrap;html=1;aspect=fixed;labelBackgroundColor=none;fillColor=#ffe6cc;strokeColor=#d79b00;" vertex="1" parent="CNsvlzbDIOFofRBmc1B0-193">
          <mxGeometry x="30" y="30" width="20" height="20" as="geometry" />
        </mxCell>
        <mxCell id="CNsvlzbDIOFofRBmc1B0-106" value="" style="whiteSpace=wrap;html=1;aspect=fixed;labelBackgroundColor=none;fillColor=#dae8fc;strokeColor=#6c8ebf;" vertex="1" parent="CNsvlzbDIOFofRBmc1B0-193">
          <mxGeometry x="40" y="40" width="20" height="20" as="geometry" />
        </mxCell>
        <mxCell id="CNsvlzbDIOFofRBmc1B0-107" value="" style="whiteSpace=wrap;html=1;aspect=fixed;labelBackgroundColor=none;fillColor=#ffe6cc;strokeColor=#d79b00;" vertex="1" parent="CNsvlzbDIOFofRBmc1B0-193">
          <mxGeometry x="50" y="50" width="20" height="20" as="geometry" />
        </mxCell>
        <mxCell id="CNsvlzbDIOFofRBmc1B0-108" value="" style="whiteSpace=wrap;html=1;aspect=fixed;labelBackgroundColor=none;fillColor=#dae8fc;strokeColor=#6c8ebf;" vertex="1" parent="CNsvlzbDIOFofRBmc1B0-193">
          <mxGeometry x="60" y="60" width="20" height="20" as="geometry" />
        </mxCell>
        <mxCell id="CNsvlzbDIOFofRBmc1B0-109" value="" style="whiteSpace=wrap;html=1;aspect=fixed;labelBackgroundColor=none;fillColor=#ffe6cc;strokeColor=#d79b00;" vertex="1" parent="CNsvlzbDIOFofRBmc1B0-193">
          <mxGeometry x="70" y="70" width="20" height="20" as="geometry" />
        </mxCell>
        <mxCell id="CNsvlzbDIOFofRBmc1B0-110" value="" style="whiteSpace=wrap;html=1;aspect=fixed;labelBackgroundColor=none;fillColor=#dae8fc;strokeColor=#6c8ebf;" vertex="1" parent="CNsvlzbDIOFofRBmc1B0-193">
          <mxGeometry x="80" y="80" width="20" height="20" as="geometry" />
        </mxCell>
        <mxCell id="CNsvlzbDIOFofRBmc1B0-111" value="" style="whiteSpace=wrap;html=1;aspect=fixed;labelBackgroundColor=none;fillColor=#ffe6cc;strokeColor=#d79b00;" vertex="1" parent="CNsvlzbDIOFofRBmc1B0-193">
          <mxGeometry x="90" y="90" width="20" height="20" as="geometry" />
        </mxCell>
        <mxCell id="CNsvlzbDIOFofRBmc1B0-112" value="" style="whiteSpace=wrap;html=1;aspect=fixed;labelBackgroundColor=none;fillColor=#dae8fc;strokeColor=#6c8ebf;" vertex="1" parent="CNsvlzbDIOFofRBmc1B0-193">
          <mxGeometry x="100" y="100" width="20" height="20" as="geometry" />
        </mxCell>
        <mxCell id="CNsvlzbDIOFofRBmc1B0-113" value="" style="whiteSpace=wrap;html=1;aspect=fixed;labelBackgroundColor=none;fillColor=#ffe6cc;strokeColor=#d79b00;" vertex="1" parent="CNsvlzbDIOFofRBmc1B0-193">
          <mxGeometry x="110" y="110" width="20" height="20" as="geometry" />
        </mxCell>
        <mxCell id="CNsvlzbDIOFofRBmc1B0-116" value="Maxpooling" style="text;html=1;strokeColor=none;fillColor=none;align=center;verticalAlign=middle;whiteSpace=wrap;rounded=0;labelBackgroundColor=none;fontStyle=1" vertex="1" parent="CNsvlzbDIOFofRBmc1B0-193">
          <mxGeometry x="-50" y="100" width="80" height="20" as="geometry" />
        </mxCell>
        <mxCell id="CNsvlzbDIOFofRBmc1B0-196" value="" style="group" vertex="1" connectable="0" parent="1">
          <mxGeometry x="300" y="190" width="180" height="180" as="geometry" />
        </mxCell>
        <mxCell id="CNsvlzbDIOFofRBmc1B0-22" value="" style="whiteSpace=wrap;html=1;aspect=fixed;labelBackgroundColor=none;fillColor=#ffe6cc;strokeColor=#d79b00;" vertex="1" parent="CNsvlzbDIOFofRBmc1B0-196">
          <mxGeometry width="30" height="30" as="geometry" />
        </mxCell>
        <mxCell id="CNsvlzbDIOFofRBmc1B0-23" value="" style="whiteSpace=wrap;html=1;aspect=fixed;labelBackgroundColor=none;fillColor=#dae8fc;strokeColor=#6c8ebf;" vertex="1" parent="CNsvlzbDIOFofRBmc1B0-196">
          <mxGeometry x="10" y="10" width="30" height="30" as="geometry" />
        </mxCell>
        <mxCell id="CNsvlzbDIOFofRBmc1B0-24" value="" style="whiteSpace=wrap;html=1;aspect=fixed;labelBackgroundColor=none;fillColor=#ffe6cc;strokeColor=#d79b00;" vertex="1" parent="CNsvlzbDIOFofRBmc1B0-196">
          <mxGeometry x="20" y="20" width="30" height="30" as="geometry" />
        </mxCell>
        <mxCell id="CNsvlzbDIOFofRBmc1B0-25" value="" style="whiteSpace=wrap;html=1;aspect=fixed;labelBackgroundColor=none;fillColor=#dae8fc;strokeColor=#6c8ebf;" vertex="1" parent="CNsvlzbDIOFofRBmc1B0-196">
          <mxGeometry x="30" y="30" width="30" height="30" as="geometry" />
        </mxCell>
        <mxCell id="CNsvlzbDIOFofRBmc1B0-26" value="" style="whiteSpace=wrap;html=1;aspect=fixed;labelBackgroundColor=none;fillColor=#ffe6cc;strokeColor=#d79b00;" vertex="1" parent="CNsvlzbDIOFofRBmc1B0-196">
          <mxGeometry x="40" y="40" width="30" height="30" as="geometry" />
        </mxCell>
        <mxCell id="CNsvlzbDIOFofRBmc1B0-27" value="" style="whiteSpace=wrap;html=1;aspect=fixed;labelBackgroundColor=none;fillColor=#dae8fc;strokeColor=#6c8ebf;" vertex="1" parent="CNsvlzbDIOFofRBmc1B0-196">
          <mxGeometry x="50" y="50" width="30" height="30" as="geometry" />
        </mxCell>
        <mxCell id="CNsvlzbDIOFofRBmc1B0-28" value="" style="whiteSpace=wrap;html=1;aspect=fixed;labelBackgroundColor=none;fillColor=#ffe6cc;strokeColor=#d79b00;" vertex="1" parent="CNsvlzbDIOFofRBmc1B0-196">
          <mxGeometry x="60" y="60" width="30" height="30" as="geometry" />
        </mxCell>
        <mxCell id="CNsvlzbDIOFofRBmc1B0-29" value="" style="whiteSpace=wrap;html=1;aspect=fixed;labelBackgroundColor=none;fillColor=#dae8fc;strokeColor=#6c8ebf;" vertex="1" parent="CNsvlzbDIOFofRBmc1B0-196">
          <mxGeometry x="70" y="70" width="30" height="30" as="geometry" />
        </mxCell>
        <mxCell id="CNsvlzbDIOFofRBmc1B0-30" value="" style="whiteSpace=wrap;html=1;aspect=fixed;labelBackgroundColor=none;fillColor=#ffe6cc;strokeColor=#d79b00;" vertex="1" parent="CNsvlzbDIOFofRBmc1B0-196">
          <mxGeometry x="80" y="80" width="30" height="30" as="geometry" />
        </mxCell>
        <mxCell id="CNsvlzbDIOFofRBmc1B0-31" value="" style="whiteSpace=wrap;html=1;aspect=fixed;labelBackgroundColor=none;fillColor=#dae8fc;strokeColor=#6c8ebf;" vertex="1" parent="CNsvlzbDIOFofRBmc1B0-196">
          <mxGeometry x="90" y="90" width="30" height="30" as="geometry" />
        </mxCell>
        <mxCell id="CNsvlzbDIOFofRBmc1B0-32" value="" style="whiteSpace=wrap;html=1;aspect=fixed;labelBackgroundColor=none;fillColor=#ffe6cc;strokeColor=#d79b00;" vertex="1" parent="CNsvlzbDIOFofRBmc1B0-196">
          <mxGeometry x="100" y="100" width="30" height="30" as="geometry" />
        </mxCell>
        <mxCell id="CNsvlzbDIOFofRBmc1B0-33" value="" style="whiteSpace=wrap;html=1;aspect=fixed;labelBackgroundColor=none;fillColor=#dae8fc;strokeColor=#6c8ebf;" vertex="1" parent="CNsvlzbDIOFofRBmc1B0-196">
          <mxGeometry x="110" y="110" width="30" height="30" as="geometry" />
        </mxCell>
        <mxCell id="CNsvlzbDIOFofRBmc1B0-34" value="" style="whiteSpace=wrap;html=1;aspect=fixed;labelBackgroundColor=none;fillColor=#ffe6cc;strokeColor=#d79b00;" vertex="1" parent="CNsvlzbDIOFofRBmc1B0-196">
          <mxGeometry x="120" y="120" width="30" height="30" as="geometry" />
        </mxCell>
        <mxCell id="CNsvlzbDIOFofRBmc1B0-35" value="" style="whiteSpace=wrap;html=1;aspect=fixed;labelBackgroundColor=none;fillColor=#dae8fc;strokeColor=#6c8ebf;" vertex="1" parent="CNsvlzbDIOFofRBmc1B0-196">
          <mxGeometry x="130" y="130" width="30" height="30" as="geometry" />
        </mxCell>
        <mxCell id="CNsvlzbDIOFofRBmc1B0-36" value="" style="whiteSpace=wrap;html=1;aspect=fixed;labelBackgroundColor=none;fillColor=#ffe6cc;strokeColor=#d79b00;" vertex="1" parent="CNsvlzbDIOFofRBmc1B0-196">
          <mxGeometry x="140" y="140" width="30" height="30" as="geometry" />
        </mxCell>
        <mxCell id="CNsvlzbDIOFofRBmc1B0-37" value="" style="whiteSpace=wrap;html=1;aspect=fixed;labelBackgroundColor=none;fillColor=#dae8fc;strokeColor=#6c8ebf;" vertex="1" parent="CNsvlzbDIOFofRBmc1B0-196">
          <mxGeometry x="150" y="150" width="30" height="30" as="geometry" />
        </mxCell>
        <mxCell id="CNsvlzbDIOFofRBmc1B0-197" style="edgeStyle=orthogonalEdgeStyle;rounded=0;comic=0;sketch=0;orthogonalLoop=1;jettySize=auto;html=1;shadow=0;dashed=1;endArrow=classic;endFill=1;strokeWidth=1;" edge="1" parent="1">
          <mxGeometry relative="1" as="geometry">
            <mxPoint x="1500" y="294.70999999999987" as="targetPoint" />
            <mxPoint x="1350" y="294.70999999999987" as="sourcePoint" />
          </mxGeometry>
        </mxCell>
        <mxCell id="CNsvlzbDIOFofRBmc1B0-198" value="Conv3D&amp;nbsp;&lt;br&gt;+ &lt;br&gt;Selu" style="text;html=1;strokeColor=none;fillColor=none;align=center;verticalAlign=middle;whiteSpace=wrap;rounded=0;labelBackgroundColor=none;fontStyle=1" vertex="1" parent="1">
          <mxGeometry x="1380" y="310" width="80" height="20" as="geometry" />
        </mxCell>
        <mxCell id="CNsvlzbDIOFofRBmc1B0-202" value="" style="group" vertex="1" connectable="0" parent="1">
          <mxGeometry x="500" y="200" width="150" height="150" as="geometry" />
        </mxCell>
        <mxCell id="CNsvlzbDIOFofRBmc1B0-200" value="" style="group" vertex="1" connectable="0" parent="CNsvlzbDIOFofRBmc1B0-202">
          <mxGeometry width="150" height="150" as="geometry" />
        </mxCell>
        <mxCell id="CNsvlzbDIOFofRBmc1B0-195" value="" style="group" vertex="1" connectable="0" parent="CNsvlzbDIOFofRBmc1B0-200">
          <mxGeometry width="150" height="150" as="geometry" />
        </mxCell>
        <mxCell id="CNsvlzbDIOFofRBmc1B0-88" value="" style="whiteSpace=wrap;html=1;aspect=fixed;labelBackgroundColor=none;fillColor=#dae8fc;strokeColor=#6c8ebf;" vertex="1" parent="CNsvlzbDIOFofRBmc1B0-195">
          <mxGeometry width="30" height="30" as="geometry" />
        </mxCell>
        <mxCell id="CNsvlzbDIOFofRBmc1B0-90" value="" style="whiteSpace=wrap;html=1;aspect=fixed;labelBackgroundColor=none;fillColor=#ffe6cc;strokeColor=#d79b00;" vertex="1" parent="CNsvlzbDIOFofRBmc1B0-195">
          <mxGeometry x="10" y="10" width="30" height="30" as="geometry" />
        </mxCell>
        <mxCell id="CNsvlzbDIOFofRBmc1B0-91" value="" style="whiteSpace=wrap;html=1;aspect=fixed;labelBackgroundColor=none;fillColor=#dae8fc;strokeColor=#6c8ebf;" vertex="1" parent="CNsvlzbDIOFofRBmc1B0-195">
          <mxGeometry x="20" y="20" width="30" height="30" as="geometry" />
        </mxCell>
        <mxCell id="CNsvlzbDIOFofRBmc1B0-92" value="" style="whiteSpace=wrap;html=1;aspect=fixed;labelBackgroundColor=none;fillColor=#ffe6cc;strokeColor=#d79b00;" vertex="1" parent="CNsvlzbDIOFofRBmc1B0-195">
          <mxGeometry x="30" y="30" width="30" height="30" as="geometry" />
        </mxCell>
        <mxCell id="CNsvlzbDIOFofRBmc1B0-93" value="" style="whiteSpace=wrap;html=1;aspect=fixed;labelBackgroundColor=none;fillColor=#dae8fc;strokeColor=#6c8ebf;" vertex="1" parent="CNsvlzbDIOFofRBmc1B0-195">
          <mxGeometry x="40" y="40" width="30" height="30" as="geometry" />
        </mxCell>
        <mxCell id="CNsvlzbDIOFofRBmc1B0-94" value="" style="whiteSpace=wrap;html=1;aspect=fixed;labelBackgroundColor=none;fillColor=#ffe6cc;strokeColor=#d79b00;" vertex="1" parent="CNsvlzbDIOFofRBmc1B0-195">
          <mxGeometry x="50" y="50" width="30" height="30" as="geometry" />
        </mxCell>
        <mxCell id="CNsvlzbDIOFofRBmc1B0-95" value="" style="whiteSpace=wrap;html=1;aspect=fixed;labelBackgroundColor=none;fillColor=#dae8fc;strokeColor=#6c8ebf;" vertex="1" parent="CNsvlzbDIOFofRBmc1B0-195">
          <mxGeometry x="60" y="60" width="30" height="30" as="geometry" />
        </mxCell>
        <mxCell id="CNsvlzbDIOFofRBmc1B0-96" value="" style="whiteSpace=wrap;html=1;aspect=fixed;labelBackgroundColor=none;fillColor=#ffe6cc;strokeColor=#d79b00;" vertex="1" parent="CNsvlzbDIOFofRBmc1B0-195">
          <mxGeometry x="70" y="70" width="30" height="30" as="geometry" />
        </mxCell>
        <mxCell id="CNsvlzbDIOFofRBmc1B0-97" value="" style="whiteSpace=wrap;html=1;aspect=fixed;labelBackgroundColor=none;fillColor=#dae8fc;strokeColor=#6c8ebf;" vertex="1" parent="CNsvlzbDIOFofRBmc1B0-195">
          <mxGeometry x="80" y="80" width="30" height="30" as="geometry" />
        </mxCell>
        <mxCell id="CNsvlzbDIOFofRBmc1B0-98" value="" style="whiteSpace=wrap;html=1;aspect=fixed;labelBackgroundColor=none;fillColor=#ffe6cc;strokeColor=#d79b00;" vertex="1" parent="CNsvlzbDIOFofRBmc1B0-195">
          <mxGeometry x="90" y="90" width="30" height="30" as="geometry" />
        </mxCell>
        <mxCell id="CNsvlzbDIOFofRBmc1B0-99" value="" style="whiteSpace=wrap;html=1;aspect=fixed;labelBackgroundColor=none;fillColor=#dae8fc;strokeColor=#6c8ebf;" vertex="1" parent="CNsvlzbDIOFofRBmc1B0-195">
          <mxGeometry x="100" y="100" width="30" height="30" as="geometry" />
        </mxCell>
        <mxCell id="CNsvlzbDIOFofRBmc1B0-100" value="" style="whiteSpace=wrap;html=1;aspect=fixed;labelBackgroundColor=none;fillColor=#ffe6cc;strokeColor=#d79b00;" vertex="1" parent="CNsvlzbDIOFofRBmc1B0-195">
          <mxGeometry x="110" y="110" width="30" height="30" as="geometry" />
        </mxCell>
        <mxCell id="CNsvlzbDIOFofRBmc1B0-101" value="" style="whiteSpace=wrap;html=1;aspect=fixed;labelBackgroundColor=none;fillColor=#dae8fc;strokeColor=#6c8ebf;" vertex="1" parent="CNsvlzbDIOFofRBmc1B0-195">
          <mxGeometry x="120" y="120" width="30" height="30" as="geometry" />
        </mxCell>
        <mxCell id="CNsvlzbDIOFofRBmc1B0-122" value="" style="whiteSpace=wrap;html=1;aspect=fixed;labelBackgroundColor=none;fillColor=#ffe6cc;strokeColor=#d79b00;" vertex="1" parent="1">
          <mxGeometry x="800" y="150" width="20" height="20" as="geometry" />
        </mxCell>
        <mxCell id="CNsvlzbDIOFofRBmc1B0-123" value="" style="whiteSpace=wrap;html=1;aspect=fixed;labelBackgroundColor=none;fillColor=#dae8fc;strokeColor=#6c8ebf;" vertex="1" parent="1">
          <mxGeometry x="810" y="160" width="20" height="20" as="geometry" />
        </mxCell>
        <mxCell id="CNsvlzbDIOFofRBmc1B0-124" value="" style="whiteSpace=wrap;html=1;aspect=fixed;labelBackgroundColor=none;fillColor=#ffe6cc;strokeColor=#d79b00;" vertex="1" parent="1">
          <mxGeometry x="820" y="170" width="20" height="20" as="geometry" />
        </mxCell>
        <mxCell id="CNsvlzbDIOFofRBmc1B0-125" value="" style="whiteSpace=wrap;html=1;aspect=fixed;labelBackgroundColor=none;fillColor=#dae8fc;strokeColor=#6c8ebf;" vertex="1" parent="1">
          <mxGeometry x="830" y="180" width="20" height="20" as="geometry" />
        </mxCell>
        <mxCell id="CNsvlzbDIOFofRBmc1B0-126" value="" style="whiteSpace=wrap;html=1;aspect=fixed;labelBackgroundColor=none;fillColor=#ffe6cc;strokeColor=#d79b00;" vertex="1" parent="1">
          <mxGeometry x="840" y="190" width="20" height="20" as="geometry" />
        </mxCell>
        <mxCell id="CNsvlzbDIOFofRBmc1B0-127" value="" style="whiteSpace=wrap;html=1;aspect=fixed;labelBackgroundColor=none;fillColor=#dae8fc;strokeColor=#6c8ebf;" vertex="1" parent="1">
          <mxGeometry x="850" y="200" width="20" height="20" as="geometry" />
        </mxCell>
        <mxCell id="CNsvlzbDIOFofRBmc1B0-128" value="" style="whiteSpace=wrap;html=1;aspect=fixed;labelBackgroundColor=none;fillColor=#ffe6cc;strokeColor=#d79b00;" vertex="1" parent="1">
          <mxGeometry x="860" y="210" width="20" height="20" as="geometry" />
        </mxCell>
        <mxCell id="CNsvlzbDIOFofRBmc1B0-129" value="" style="whiteSpace=wrap;html=1;aspect=fixed;labelBackgroundColor=none;fillColor=#dae8fc;strokeColor=#6c8ebf;" vertex="1" parent="1">
          <mxGeometry x="870" y="220" width="20" height="20" as="geometry" />
        </mxCell>
        <mxCell id="CNsvlzbDIOFofRBmc1B0-130" value="" style="whiteSpace=wrap;html=1;aspect=fixed;labelBackgroundColor=none;fillColor=#ffe6cc;strokeColor=#d79b00;" vertex="1" parent="1">
          <mxGeometry x="880" y="230" width="20" height="20" as="geometry" />
        </mxCell>
        <mxCell id="CNsvlzbDIOFofRBmc1B0-131" value="" style="whiteSpace=wrap;html=1;aspect=fixed;labelBackgroundColor=none;fillColor=#dae8fc;strokeColor=#6c8ebf;" vertex="1" parent="1">
          <mxGeometry x="890" y="240" width="20" height="20" as="geometry" />
        </mxCell>
        <mxCell id="CNsvlzbDIOFofRBmc1B0-132" value="" style="whiteSpace=wrap;html=1;aspect=fixed;labelBackgroundColor=none;fillColor=#ffe6cc;strokeColor=#d79b00;" vertex="1" parent="1">
          <mxGeometry x="900" y="250" width="20" height="20" as="geometry" />
        </mxCell>
        <mxCell id="CNsvlzbDIOFofRBmc1B0-133" value="" style="whiteSpace=wrap;html=1;aspect=fixed;labelBackgroundColor=none;fillColor=#dae8fc;strokeColor=#6c8ebf;" vertex="1" parent="1">
          <mxGeometry x="910" y="260" width="20" height="20" as="geometry" />
        </mxCell>
        <mxCell id="CNsvlzbDIOFofRBmc1B0-134" value="" style="whiteSpace=wrap;html=1;aspect=fixed;labelBackgroundColor=none;fillColor=#ffe6cc;strokeColor=#d79b00;" vertex="1" parent="1">
          <mxGeometry x="920" y="270" width="20" height="20" as="geometry" />
        </mxCell>
        <mxCell id="CNsvlzbDIOFofRBmc1B0-135" value="" style="whiteSpace=wrap;html=1;aspect=fixed;labelBackgroundColor=none;fillColor=#dae8fc;strokeColor=#6c8ebf;" vertex="1" parent="1">
          <mxGeometry x="930" y="280" width="20" height="20" as="geometry" />
        </mxCell>
        <mxCell id="CNsvlzbDIOFofRBmc1B0-136" value="" style="whiteSpace=wrap;html=1;aspect=fixed;labelBackgroundColor=none;fillColor=#ffe6cc;strokeColor=#d79b00;" vertex="1" parent="1">
          <mxGeometry x="940" y="290" width="20" height="20" as="geometry" />
        </mxCell>
        <mxCell id="CNsvlzbDIOFofRBmc1B0-137" value="" style="whiteSpace=wrap;html=1;aspect=fixed;labelBackgroundColor=none;fillColor=#dae8fc;strokeColor=#6c8ebf;" vertex="1" parent="1">
          <mxGeometry x="950" y="300" width="20" height="20" as="geometry" />
        </mxCell>
        <mxCell id="CNsvlzbDIOFofRBmc1B0-138" value="" style="whiteSpace=wrap;html=1;aspect=fixed;labelBackgroundColor=none;fillColor=#ffe6cc;strokeColor=#d79b00;" vertex="1" parent="1">
          <mxGeometry x="960" y="310" width="20" height="20" as="geometry" />
        </mxCell>
        <mxCell id="CNsvlzbDIOFofRBmc1B0-139" value="" style="whiteSpace=wrap;html=1;aspect=fixed;labelBackgroundColor=none;fillColor=#dae8fc;strokeColor=#6c8ebf;" vertex="1" parent="1">
          <mxGeometry x="970" y="320" width="20" height="20" as="geometry" />
        </mxCell>
        <mxCell id="CNsvlzbDIOFofRBmc1B0-140" value="" style="whiteSpace=wrap;html=1;aspect=fixed;labelBackgroundColor=none;fillColor=#ffe6cc;strokeColor=#d79b00;" vertex="1" parent="1">
          <mxGeometry x="980" y="330" width="20" height="20" as="geometry" />
        </mxCell>
        <mxCell id="CNsvlzbDIOFofRBmc1B0-141" value="" style="whiteSpace=wrap;html=1;aspect=fixed;labelBackgroundColor=none;fillColor=#dae8fc;strokeColor=#6c8ebf;" vertex="1" parent="1">
          <mxGeometry x="990" y="340" width="20" height="20" as="geometry" />
        </mxCell>
        <mxCell id="CNsvlzbDIOFofRBmc1B0-205" style="rounded=0;comic=0;sketch=0;orthogonalLoop=1;jettySize=auto;html=1;shadow=0;dashed=1;endArrow=classic;endFill=1;strokeWidth=1;verticalAlign=middle;" edge="1" parent="1">
          <mxGeometry x="840" y="145.76000000000002" as="geometry">
            <mxPoint x="910" y="294.76" as="targetPoint" />
            <mxPoint x="790" y="295.19" as="sourcePoint" />
          </mxGeometry>
        </mxCell>
      </root>
    </mxGraphModel>
  </diagram>
</mxfile>
